<svg width="32" height="32" viewBox="0 0 32 32" fill="none" xmlns="http://www.w3.org/2000/svg">
<path d="M28.433 14.8226L26.4159 9.25294C26.0554 8.25788 25.011 7.68619 23.9788 7.91969L20.7823 8.64088C21.1103 9.21488 21.3128 9.86988 21.3128 10.577C21.3128 12.7461 19.5485 14.5099 17.38 14.5099C15.2121 14.5099 13.4483 12.7461 13.4483 10.577C13.4483 10.4784 13.4701 10.386 13.4773 10.2893L4.58807 12.2952C3.60713 12.5166 2.91057 13.3878 2.91057 14.3941V26.4249C2.91057 27.9694 4.06963 29.2468 5.60657 29.3971L25.2836 31.3163C25.3796 31.3254 25.4756 31.3305 25.5714 31.3305C26.3148 31.3305 27.0276 31.0554 27.5779 30.5568C28.201 29.9922 28.5584 29.1859 28.5584 28.3441V15.5374C28.5584 15.2938 28.5158 15.0511 28.433 14.8226ZM5.14763 15.1404C5.24757 15.0491 5.38163 15.0054 5.51669 15.0186L26.0458 17.0199C26.2914 17.0444 26.4788 17.2504 26.4788 17.4983V22.3354C26.3792 22.3728 26.2795 22.4124 26.1919 22.4821C25.9554 22.6709 25.6477 22.7602 25.3451 22.7237C25.0334 22.6851 24.7556 22.5298 24.5621 22.2861L24.4911 22.1998C23.9443 21.5508 23.1553 21.1244 22.3099 21.0249C21.4646 20.9223 20.6381 21.1396 19.9547 21.6281L19.8191 21.7296C19.578 21.9215 19.2769 22.0108 18.9683 21.9692C18.6778 21.9347 18.4179 21.7986 18.2294 21.5844L18.1884 21.5326C17.0353 20.0733 14.9069 19.8236 13.4468 20.9751L13.3969 21.0147C13.1609 21.1813 12.875 21.2544 12.5826 21.2168C12.2831 21.1832 12.0033 21.0268 11.8134 20.7852C11.2544 20.0765 10.4543 19.6286 9.55826 19.5221C8.67276 19.4185 7.76801 19.6753 7.06938 20.2257C6.82513 20.4187 6.51951 20.5009 6.21488 20.4684C5.90769 20.4329 5.63301 20.2785 5.44063 20.0348C5.31994 19.8819 5.15994 19.7892 4.99032 19.7246V15.4958C4.99019 15.3597 5.04757 15.2308 5.14763 15.1404ZM26.1818 29.0154C26.0142 29.1676 25.7974 29.2509 25.5714 29.2509L5.80863 27.3276C5.34207 27.282 4.99019 26.894 4.99019 26.4249V22.2389C6.06332 22.7352 7.36801 22.6391 8.36144 21.8575C8.62744 21.6462 8.97732 21.5478 9.31444 21.5874C9.65813 21.628 9.96576 21.8006 10.1796 22.0718C10.7102 22.747 11.5011 23.1887 12.3399 23.2822C13.2006 23.3888 14.0484 23.1502 14.7322 22.6121L14.7896 22.5674C15.3314 22.1834 16.0828 22.2729 16.5189 22.7766L16.5565 22.8243C17.0912 23.5015 17.8598 23.9321 18.7229 24.0346C19.5303 24.1281 20.3248 23.926 20.9792 23.4579L21.1128 23.3594C21.3839 23.1451 21.7231 23.0518 22.0658 23.0903C22.4039 23.1299 22.7171 23.3046 22.9259 23.5706L23.0021 23.662C23.5326 24.2886 24.2714 24.6866 25.0974 24.7881C25.2218 24.8024 25.3461 24.8094 25.4706 24.8094C25.8141 24.8094 26.1543 24.7503 26.4789 24.6448V28.3441C26.4788 28.5999 26.3707 28.8448 26.1818 29.0154Z" fill="black"/>
<path d="M13.4686 2.27089C16.4741 3.96689 16.8211 7.7382 16.8214 7.7407C15.4934 8.00201 14.4881 9.1732 14.4881 10.5771C14.4881 12.1723 15.7852 13.4701 17.38 13.4701C18.9753 13.4701 20.2729 12.1724 20.2729 10.5771C20.2729 9.12395 19.1926 7.92945 17.7949 7.72614C17.7954 7.69976 18.0749 3.06701 14.4678 0.44714C13.9642 0.170952 13.3316 0.355827 13.0564 0.85939C12.7801 1.36301 12.9608 1.98433 13.4686 2.27089Z" fill="black"/>
</svg>
