<?xml version="1.0" standalone="no"?>
<!DOCTYPE svg PUBLIC "-//W3C//DTD SVG 20010904//EN"
 "http://www.w3.org/TR/2001/REC-SVG-20010904/DTD/svg10.dtd">
<svg version="1.0" xmlns="http://www.w3.org/2000/svg"
 width="700.000000pt" height="700.000000pt" viewBox="0 0 700.000000 700.000000"
 preserveAspectRatio="xMidYMid meet">
<metadata>
Created by potrace 1.14, written by Peter Selinger 2001-2017
</metadata>
<g transform="translate(0.000000,700.000000) scale(0.100000,-0.100000)"
fill="#000000" stroke="none">
<path d="M2978 6917 c-129 -49 -184 -193 -120 -318 24 -48 39 -62 133 -124
137 -91 196 -141 286 -244 126 -144 222 -307 293 -495 44 -117 97 -317 102
-385 l3 -43 -55 -17 c-159 -50 -321 -185 -383 -321 -54 -119 -62 -159 -61
-300 0 -87 5 -119 27 -183 143 -414 636 -565 983 -301 154 118 245 299 246
491 2 240 -128 457 -337 566 -49 25 -167 67 -190 67 -8 0 -12 22 -12 63 0 70
-12 236 -19 270 -2 12 -9 51 -15 87 -70 417 -274 805 -560 1063 -110 99 -158
128 -225 133 -36 3 -73 -1 -96 -9z"/>
<path d="M5120 5239 c-91 -21 -178 -41 -195 -44 -76 -15 -368 -85 -372 -89 -3
-3 4 -21 15 -41 12 -19 36 -77 53 -127 28 -82 32 -108 35 -223 3 -114 0 -152
-20 -240 -11 -52 -41 -127 -78 -195 -170 -315 -507 -488 -873 -446 -50 6 -144
30 -180 46 -11 5 -41 18 -67 29 -276 116 -486 432 -491 738 -2 86 -4 102 -17
98 -8 -2 -107 -25 -220 -50 -113 -26 -254 -57 -315 -71 -60 -14 -117 -27 -125
-29 -8 -2 -98 -22 -200 -44 -102 -23 -203 -45 -225 -51 -46 -11 -428 -97 -465
-104 -14 -3 -74 -17 -135 -30 -319 -74 -350 -84 -425 -145 -87 -70 -130 -133
-162 -236 l-22 -70 0 -1360 c0 -748 3 -1385 7 -1415 30 -253 212 -471 455
-543 54 -17 153 -31 277 -42 39 -3 86 -8 105 -10 34 -4 92 -10 208 -20 31 -3
73 -8 92 -10 19 -3 62 -7 95 -10 33 -3 110 -10 170 -15 61 -6 133 -13 160 -16
28 -2 68 -6 90 -9 22 -2 72 -7 110 -10 39 -3 86 -8 105 -10 36 -4 111 -12 210
-20 30 -3 71 -7 90 -10 19 -2 67 -7 105 -11 39 -3 84 -8 100 -9 17 -2 62 -6
100 -10 39 -3 86 -8 105 -10 44 -5 101 -10 310 -30 91 -8 183 -17 205 -20 22
-2 67 -7 100 -10 33 -3 78 -8 100 -10 22 -2 72 -7 110 -10 39 -3 86 -8 105
-10 19 -3 62 -7 95 -10 33 -3 105 -10 160 -15 111 -11 171 -17 260 -25 33 -3
80 -8 105 -10 115 -12 215 -22 295 -30 145 -14 369 -36 410 -41 68 -7 173 -7
215 1 25 5 50 9 55 10 49 6 158 55 228 104 56 38 146 135 181 195 34 57 72
158 82 217 5 24 8 710 9 1524 l0 1480 -33 95 c-19 52 -51 142 -72 200 -22 58
-96 263 -165 455 -234 648 -234 647 -324 726 -84 75 -172 110 -286 114 -64 2
-112 -5 -245 -36z m-3819 -1534 c36 -3 88 -8 115 -10 27 -2 72 -7 99 -10 28
-2 77 -7 110 -10 33 -3 76 -7 95 -10 19 -2 62 -7 95 -10 33 -3 78 -7 100 -10
22 -2 69 -6 105 -10 36 -3 85 -8 110 -10 25 -3 95 -9 155 -15 61 -6 128 -13
150 -15 22 -2 65 -7 95 -9 86 -9 161 -16 210 -21 25 -3 77 -7 115 -10 39 -3
86 -8 105 -10 80 -9 139 -15 200 -20 36 -3 83 -8 105 -10 22 -2 67 -7 100 -10
33 -3 78 -8 100 -10 22 -2 67 -7 100 -10 33 -3 78 -8 100 -10 67 -7 147 -14
215 -20 36 -4 81 -8 100 -10 19 -2 64 -7 100 -10 36 -3 79 -8 96 -10 17 -2 67
-6 110 -10 44 -3 96 -8 117 -10 85 -11 116 -14 187 -20 41 -4 91 -8 110 -10
19 -2 64 -6 100 -10 36 -3 81 -8 100 -10 19 -2 64 -7 100 -10 36 -4 81 -8 100
-10 19 -2 69 -7 110 -10 41 -4 86 -9 100 -10 14 -1 59 -6 100 -9 41 -4 86 -9
100 -11 14 -2 61 -7 104 -10 112 -9 118 -11 149 -45 21 -24 27 -40 27 -78 2
-303 0 -1045 -2 -1046 -2 -1 -32 -19 -67 -40 -52 -32 -76 -40 -130 -44 -95 -6
-148 18 -229 107 -160 176 -335 259 -556 265 -163 5 -312 -43 -459 -148 -68
-48 -80 -53 -146 -61 -87 -10 -158 25 -246 122 -58 64 -147 135 -210 168 -139
74 -334 102 -485 71 -119 -25 -185 -56 -340 -156 -58 -38 -120 -50 -185 -35
-74 17 -106 37 -167 108 -96 109 -198 177 -331 222 -95 31 -133 38 -233 38
-77 0 -228 -26 -249 -43 -5 -5 -14 -9 -20 -10 -27 -5 -106 -47 -160 -84 -85
-60 -130 -75 -205 -71 -72 5 -126 32 -182 93 -20 22 -50 46 -67 53 l-31 14 0
473 c0 509 1 514 52 539 35 17 51 21 73 17 11 -1 50 -6 86 -9z m820 -1452 c41
-18 107 -75 141 -121 25 -34 124 -111 188 -145 172 -94 402 -109 593 -37 31
12 97 48 147 81 111 74 130 81 210 81 94 1 141 -25 257 -141 108 -108 187
-159 299 -196 216 -71 446 -37 626 91 94 67 126 79 213 79 105 0 135 -17 261
-142 104 -103 172 -149 270 -185 129 -46 302 -56 409 -24 27 8 51 13 53 11 2
-2 4 -194 3 -426 -1 -418 -1 -423 -23 -468 -45 -90 -120 -118 -273 -101 -38 5
-101 11 -140 15 -112 10 -167 15 -205 20 -19 2 -66 7 -105 10 -38 3 -86 8
-105 10 -19 2 -64 7 -100 10 -36 3 -81 7 -100 10 -34 4 -64 7 -215 20 -38 3
-85 8 -103 11 -18 2 -60 6 -95 9 -34 3 -80 7 -102 10 -22 2 -71 7 -110 10 -38
3 -83 8 -100 10 -16 2 -61 6 -100 10 -38 3 -88 8 -110 10 -73 8 -408 41 -515
51 -30 2 -73 7 -95 9 -44 5 -122 12 -200 20 -27 2 -97 9 -155 15 -58 5 -132
12 -165 15 -33 3 -76 7 -95 10 -19 2 -64 7 -100 10 -72 6 -146 14 -200 20 -19
2 -71 7 -115 10 -44 4 -93 8 -110 10 -16 2 -59 7 -95 10 -36 3 -76 8 -90 10
-14 2 -61 6 -105 10 -44 3 -91 8 -105 10 -14 2 -59 7 -100 10 -41 3 -86 7
-100 9 -14 3 -65 7 -115 11 -120 8 -184 38 -223 103 l-27 47 -3 483 c-1 265
-1 482 1 482 3 0 24 -7 48 -15 96 -34 164 -44 279 -41 164 5 243 33 406 143
28 19 69 40 90 48 53 18 149 13 205 -12z"/>
</g>
</svg>
